<?xml version="1.0" encoding="UTF-8" standalone="no"?>
<!-- Created with Inkscape (http://www.inkscape.org/) -->

<svg
   xmlns:dc="http://purl.org/dc/elements/1.1/"
   xmlns:cc="http://creativecommons.org/ns#"
   xmlns:rdf="http://www.w3.org/1999/02/22-rdf-syntax-ns#"
   xmlns:svg="http://www.w3.org/2000/svg"
   xmlns="http://www.w3.org/2000/svg"
   xmlns:sodipodi="http://sodipodi.sourceforge.net/DTD/sodipodi-0.dtd"
   xmlns:inkscape="http://www.inkscape.org/namespaces/inkscape"
   width="77.264mm"
   height="81.048019mm"
   viewBox="0 0 77.264 81.048019"
   version="1.1"
   id="svg917"
   inkscape:version="0.92.4 (unknown)"
   sodipodi:docname="logo.svg">
  <defs
     id="defs911" />
  <sodipodi:namedview
     id="base"
     pagecolor="#ffffff"
     bordercolor="#666666"
     borderopacity="1.0"
     inkscape:pageopacity="0.0"
     inkscape:pageshadow="2"
     inkscape:zoom="0.35"
     inkscape:cx="-235.41786"
     inkscape:cy="158.87588"
     inkscape:document-units="mm"
     inkscape:current-layer="layer1"
     showgrid="false"
     fit-margin-top="0"
     fit-margin-left="0"
     fit-margin-right="0"
     fit-margin-bottom="0"
     inkscape:window-width="1280"
     inkscape:window-height="975"
     inkscape:window-x="0"
     inkscape:window-y="0"
     inkscape:window-maximized="1" />
  <metadata
     id="metadata914">
    <rdf:RDF>
      <cc:Work
         rdf:about="">
        <dc:format>image/svg+xml</dc:format>
        <dc:type
           rdf:resource="http://purl.org/dc/dcmitype/StillImage" />
        <dc:title></dc:title>
      </cc:Work>
    </rdf:RDF>
  </metadata>
  <g
     inkscape:label="Layer 1"
     inkscape:groupmode="layer"
     id="layer1"
     transform="translate(-36.207285,-109.82123)">
    <g
       id="g20"
       transform="matrix(0.35277777,0,0,-0.35277777,90.154174,135.86763)"
       style="fill:#000000">
      <path
         d="m 0,0 c -5.507,0 -9.987,4.48 -9.987,9.987 0,5.511 4.48,9.994 9.987,9.994 5.511,0 9.994,-4.483 9.994,-9.994 C 9.994,4.48 5.511,0 0,0 m 49.405,-98.038 c -13.415,16.955 -33.554,32.54 -33.554,63.556 0,31.016 26.284,20.631 26.284,43.234 0,18.171 -26.044,19.81 -39.693,21.498 -8.104,1.003 -9.286,7.803 -8.909,13.163 0.234,3.324 1.204,6.553 2.69,9.535 5.153,10.345 8.074,17.513 2.645,20.426 C -7.05,76.549 -18.409,62.61 -24.915,50.648 -34.89,32.306 -38.621,7.543 -40.129,-21.125 c -0.608,-11.545 -6.048,-18.113 -11.315,-21.791 -4.516,-3.154 -10.073,-4.435 -15.547,-3.822 -7.766,0.869 -16.748,4.621 -28.941,1.251 -13.881,-3.836 -23.381,-21.734 -26.393,-26.561 -3.011,-4.827 -21.975,-36.776 -26.344,-43.591 -4.37,-6.815 -6.763,-14.28 -0.172,-17.91 6.592,-3.63 13.08,1.164 18.565,7.359 5.879,6.639 20.772,22.787 24.161,20.62 3.109,-1.988 -0.762,-13.175 -6.015,-24.432 -2.888,-6.189 -12.284,-19.053 -3.304,-24.198 9.606,-5.504 14.909,1.768 36.076,29.361 21.168,27.593 45.697,21.102 59.13,11.847 10.407,-7.171 25.534,-29.938 29.238,-34.973 3.703,-5.035 9.758,-10.254 17.17,-6.864 7.411,3.391 3.141,14.398 1.395,17.915 -5.147,10.372 -13.085,27.97 -9.114,30.188 3.633,2.03 19.595,-15.688 25.111,-20.678 5.517,-4.99 12.911,-10.269 19.887,-4.237 6.976,6.032 -0.639,16.648 -14.054,33.603"
         style="fill:#000000;fill-opacity:1;fill-rule:nonzero;stroke:none"
         id="path22"
         inkscape:connector-curvature="0" />
    </g>
  </g>
</svg>
